<svg width="72.000000" height="72.000000" viewBox="0 0 72 72" fill="none" xmlns="http://www.w3.org/2000/svg" xmlns:xlink="http://www.w3.org/1999/xlink">
	<desc>
			Created with Pixso.
	</desc>
	<defs>
		<clipPath id="clip2_27">
			<rect id="Домой" width="72.000000" height="72.000000" fill="white" fill-opacity="0"/>
		</clipPath>
	</defs>
	<g clip-path="url(#clip2_27)">
		<path id="path" d="M13.5 27L13.5 63L58.5 63L58.5 27L36 9L13.5 27Z" fill="#000000" fill-opacity="0" fill-rule="nonzero"/>
		<path id="path" d="M13.5 63L58.5 63L58.5 27L36 9L13.5 27L13.5 63Z" stroke="#FFFFFF" stroke-opacity="1.000000" stroke-width="5.000000" stroke-linejoin="round"/>
		<path id="path" d="M28.5 43.5L28.5 63L43.5 63L43.5 43.5L28.5 43.5Z" fill="#000000" fill-opacity="0" fill-rule="nonzero"/>
		<path id="path" d="M28.5 63L43.5 63L43.5 43.5L28.5 43.5L28.5 63Z" stroke="#FFFFFF" stroke-opacity="1.000000" stroke-width="5.000000" stroke-linejoin="round"/>
		<path id="path" d="M13.52 65.48L13.5 65.5C12.1 65.5 11 64.4 11 63C11 61.6 12.1 60.5 13.5 60.5L13.52 60.52L13.52 65.48ZM58.48 60.52L58.5 60.5C59.9 60.5 61 61.6 61 63C61 64.4 59.9 65.5 58.5 65.5L58.48 65.48L58.48 60.52Z" fill="#000000" fill-opacity="0" fill-rule="nonzero"/>
		<path id="path" d="M13.5 63L58.5 63" stroke="#FFFFFF" stroke-opacity="1.000000" stroke-width="5.000000" stroke-linecap="round"/>
	</g>
</svg>
