<svg width="72.000000" height="72.000000" viewBox="0 0 72 72" fill="none" xmlns="http://www.w3.org/2000/svg" xmlns:xlink="http://www.w3.org/1999/xlink">
	<desc>
			Created with Pixso.
	</desc>
	<defs>
		<clipPath id="clip2_22">
			<rect id="Корзина 1" width="72.000000" height="72.000000" fill="white" fill-opacity="0"/>
		</clipPath>
	</defs>
	<g clip-path="url(#clip2_22)">
		<circle id="circle" cx="30.750000" cy="62.250000" r="5.250000" fill="#FFFFFF" fill-opacity="1.000000"/>
		<circle id="circle" cx="56.250000" cy="62.250000" r="5.250000" fill="#FFFFFF" fill-opacity="1.000000"/>
		<path id="path" d="M6.14 11.07L6.11 11.08C4.94 10.3 4.64 8.77 5.41 7.61C6.19 6.44 7.72 6.14 8.88 6.91L8.89 6.94L6.14 11.07ZM37.52 27.98L37.5 28C36.09 28 35 26.9 35 25.5C35 24.1 36.09 23 37.5 23L37.52 23.02L37.52 27.98Z" fill="#000000" fill-opacity="0" fill-rule="nonzero"/>
		<path id="path" d="M7.5 9L21 18L28.5 51L58.5 51L66 25.5L37.5 25.5" stroke="#FFFFFF" stroke-opacity="1.000000" stroke-width="5.000000" stroke-linejoin="round" stroke-linecap="round"/>
		<path id="path" d="M37.52 41.48L37.5 41.5C36.09 41.5 35 40.4 35 39C35 37.59 36.09 36.5 37.5 36.5L37.52 36.52L37.52 41.48ZM61.48 36.52L61.5 36.5C62.9 36.5 64 37.59 64 39C64 40.4 62.9 41.5 61.5 41.5L61.48 41.48L61.48 36.52Z" fill="#000000" fill-opacity="0" fill-rule="nonzero"/>
		<path id="path" d="M37.5 39L48.4 39L61.5 39" stroke="#FFFFFF" stroke-opacity="1.000000" stroke-width="5.000000" stroke-linejoin="round" stroke-linecap="round"/>
	</g>
</svg>
